<?xml version="1.0" ?><svg viewBox="0 0 512 512" xmlns="http://www.w3.org/2000/svg"><defs><style>.\36 62693f2-b6f0-4e95-9ab8-96bf858cbddb{fill:#ffecd1;}.\31 d466c5b-8479-441c-a0f3-5448d1f71edd,.\33 eb75bca-9574-4cad-b6bb-79c5314d3e32,.\36 62693f2-b6f0-4e95-9ab8-96bf858cbddb{fill-rule:evenodd;}.\33 eb75bca-9574-4cad-b6bb-79c5314d3e32{fill:#cbe557;}.\31 d466c5b-8479-441c-a0f3-5448d1f71edd,.a61e16dd-13bb-4e6f-ace7-d95672cfbc5b{fill:none;stroke:#000;stroke-linecap:round;stroke-linejoin:round;stroke-width:20px;}</style></defs><title/><g data-name="01 Medal" id="bb3f0ffa-1df1-43cd-a7ca-6e5deb1694d6"><path class="662693f2-b6f0-4e95-9ab8-96bf858cbddb" d="M338,406c-4.23,6.19-12,10-20.5,10s-16.27-3.81-20.5-10c-4.23,6.19-12,10-20.5,10s-16.27-3.81-20.5-10c-4.23,6.19-12,10-20.5,10s-16.27-3.81-20.5-10c-4.23,6.19-12,10-20.5,10s-16.27-3.81-20.5-10c-4.23,6.19-12,10-20.5,10s-16.27-3.81-20.5-10c-4.23,6.19-12,10-20.5,10S96.23,412.19,92,406c-4.23,6.19-12,10-20.5,10S55.23,412.19,51,406c-4.23,6.19-12,10-20.5,10S14.23,412.19,10,406a50.15,50.15,0,0,0,50,50H452a50.15,50.15,0,0,0,50-50c-4.23,6.19-12,10-20.5,10s-16.27-3.81-20.5-10c-4.23,6.19-12,10-20.5,10s-16.27-3.81-20.5-10c-4.23,6.19-12,10-20.5,10s-16.27-3.81-20.5-10c-4.23,6.19-12,10-20.5,10S342.23,412.19,338,406Z"/><path class="3eb75bca-9574-4cad-b6bb-79c5314d3e32" d="M317.5,416c8.46,0,16.27-3.81,20.5-10,4.23,6.19,12,10,20.5,10s16.27-3.81,20.5-10c4.23,6.19,12,10,20.5,10s16.27-3.81,20.5-10c4.23,6.19,12,10,20.5,10s16.27-3.81,20.5-10c4.23,6.19,12,10,20.5,10s16.27-3.81,20.5-10a50.15,50.15,0,0,0-50-50H60a50.15,50.15,0,0,0-50,50c4.23,6.19,12,10,20.5,10s16.27-3.81,20.5-10c4.23,6.19,12,10,20.5,10s16.27-3.81,20.5-10c4.23,6.19,12,10,20.5,10s16.27-3.81,20.5-10c4.23,6.19,12,10,20.5,10s16.27-3.81,20.5-10c4.23,6.19,12,10,20.5,10s16.27-3.81,20.5-10c4.23,6.19,12,10,20.5,10s16.27-3.81,20.5-10c4.23,6.19,12,10,20.5,10s16.27-3.81,20.5-10C301.23,412.19,309,416,317.5,416Z"/><path class="662693f2-b6f0-4e95-9ab8-96bf858cbddb" d="M126,356H386a50.15,50.15,0,0,0,50-50c-4.13,6.19-11.75,10-20,10s-15.87-3.81-20-10c-4.13,6.19-11.75,10-20,10s-15.87-3.81-20-10c-4.13,6.19-11.75,10-20,10s-15.87-3.81-20-10c-4.13,6.19-11.75,10-20,10s-15.87-3.81-20-10c-4.13,6.19-11.75,10-20,10s-15.87-3.81-20-10c-4.13,6.19-11.75,10-20,10s-15.87-3.81-20-10c-4.13,6.19-11.75,10-20,10s-15.87-3.81-20-10c-4.13,6.19-11.75,10-20,10s-15.87-3.81-20-10c-4.13,6.19-11.75,10-20,10s-15.87-3.81-20-10A50.15,50.15,0,0,0,126,356Z"/><path class="3eb75bca-9574-4cad-b6bb-79c5314d3e32" d="M276,306c4.13,6.19,11.75,10,20,10s15.87-3.81,20-10c4.13,6.19,11.75,10,20,10s15.87-3.81,20-10c4.13,6.19,11.75,10,20,10s15.87-3.81,20-10c4.13,6.19,11.75,10,20,10s15.87-3.81,20-10a50.15,50.15,0,0,0-50-50H126a50.15,50.15,0,0,0-50,50c4.13,6.19,11.75,10,20,10s15.87-3.81,20-10c4.13,6.19,11.75,10,20,10s15.87-3.81,20-10c4.13,6.19,11.75,10,20,10s15.87-3.81,20-10c4.13,6.19,11.75,10,20,10s15.87-3.81,20-10c4.13,6.19,11.75,10,20,10S271.87,312.19,276,306Z"/><path class="662693f2-b6f0-4e95-9ab8-96bf858cbddb" d="M216,256h55c-6.19-4.13-10-11.75-10-20s3.81-15.87,10-20c-6.19-4.13-10-11.75-10-20s3.81-15.87,10-20c-6.19-4.13-10-11.75-10-20H216Z"/><path class="3eb75bca-9574-4cad-b6bb-79c5314d3e32" d="M261,196c0,8.25,3.81,15.87,10,20-6.19,4.13-10,11.75-10,20s3.81,15.87,10,20h45V106c0-28.31-23.34-50-50-50H166a50,50,0,0,0,0,100h95c0,8.25,3.81,15.87,10,20C264.81,180.13,261,187.75,261,196Z"/><rect class="a61e16dd-13bb-4e6f-ace7-d95672cfbc5b" height="100" rx="50" ry="50" width="492" x="10" y="356"/><path class="1d466c5b-8479-441c-a0f3-5448d1f71edd" d="M126,356a50.15,50.15,0,0,1-50-50h0a50.15,50.15,0,0,1,50-50H386a50.15,50.15,0,0,1,50,50h0a50.15,50.15,0,0,1-50,50"/><path class="1d466c5b-8479-441c-a0f3-5448d1f71edd" d="M128.32,138.78c-18,2.27-25,26.27-45,28.27"/><path class="1d466c5b-8479-441c-a0f3-5448d1f71edd" d="M502,406c-4.23,6.19-12,10-20.5,10s-16.27-3.81-20.5-10c-4.23,6.19-12,10-20.5,10s-16.27-3.81-20.5-10c-4.23,6.19-12,10-20.5,10s-16.27-3.81-20.5-10c-4.23,6.19-12,10-20.5,10s-16.27-3.81-20.5-10c-4.23,6.19-12,10-20.5,10s-16.27-3.81-20.5-10c-4.23,6.19-12,10-20.5,10s-16.27-3.81-20.5-10c-4.23,6.19-12,10-20.5,10s-16.27-3.81-20.5-10c-4.23,6.19-12,10-20.5,10s-16.27-3.81-20.5-10c-4.23,6.19-12,10-20.5,10s-16.27-3.81-20.5-10c-4.23,6.19-12,10-20.5,10S96.23,412.19,92,406c-4.23,6.19-12,10-20.5,10S55.23,412.19,51,406c-4.23,6.19-12,10-20.5,10S14.23,412.19,10,406"/><path class="1d466c5b-8479-441c-a0f3-5448d1f71edd" d="M436,306c-4.13,6.19-11.75,10-20,10s-15.87-3.81-20-10c-4.13,6.19-11.75,10-20,10s-15.87-3.81-20-10c-4.13,6.19-11.75,10-20,10s-15.87-3.81-20-10c-4.13,6.19-11.75,10-20,10s-15.87-3.81-20-10c-4.13,6.19-11.75,10-20,10s-15.87-3.81-20-10c-4.13,6.19-11.75,10-20,10s-15.87-3.81-20-10c-4.13,6.19-11.75,10-20,10s-15.87-3.81-20-10c-4.13,6.19-11.75,10-20,10s-15.87-3.81-20-10c-4.13,6.19-11.75,10-20,10s-15.87-3.81-20-10"/><path class="1d466c5b-8479-441c-a0f3-5448d1f71edd" d="M271,256c-6.19-4.13-10-11.75-10-20s3.81-15.87,10-20c-6.19-4.13-10-11.75-10-20s3.81-15.87,10-20c-6.19-4.13-10-11.75-10-20H166a50,50,0,0,1,0-100H266c26.66,0,50,21.69,50,50V256m-100,0V156"/><line class="a61e16dd-13bb-4e6f-ace7-d95672cfbc5b" x1="166" x2="166" y1="96.01" y2="96"/></g></svg>